<?xml version="1.0" encoding="utf-8"?>
<!-- Generator: Adobe Illustrator 24.3.0, SVG Export Plug-In . SVG Version: 6.00 Build 0)  -->
<svg version="1.1" id="Layer_1" xmlns="http://www.w3.org/2000/svg" xmlns:xlink="http://www.w3.org/1999/xlink" x="0px" y="0px"
	 viewBox="0 0 174 82.7" style="enable-background:new 0 0 174 82.7;" xml:space="preserve">
<style type="text/css">
	.st0{fill:#E9E8D8;}
	.st1{fill:#FFFFFF;}
</style>
<g id="OBJECTS">
	<g>
		<g>
			<path d="M128,4.3c3.8-0.5,7.6-0.8,11.3-0.8l8.1,0c14.7,0,26.6,11.9,26.6,26.6l0,11.3l0,11.3c0,14.7-11.9,26.6-26.6,26.6l-8.1,0
				c-3.8,0-7.6-0.3-11.3-0.8l-11.2-1.6c-4.1-0.6-8.3-0.9-12.5-0.8l-46.3,0.5c-2.7,0-5.4,0.5-8,1.3c-2.7,0.8-5.6,1.3-8.4,1.3l-20.5,0
				c-11.4,0-20.6-9.2-20.6-20.5l0-17.4l0-17.4c0-11.4,9.2-20.5,20.6-20.5l20.6,0c2.9,0,5.7,0.4,8.4,1.3c2.6,0.8,5.3,1.2,8,1.3
				l46.3,0.7c4.2,0.1,8.3-0.2,12.5-0.8L128,4.3z"/>
			<path d="M125.6,76.3c3.5,0.5,7.1,0.8,10.7,0.8l7.6,0c13.9,0,25.2-11.2,25.2-25.1l0-10.7l0-10.7c0-13.9-11.3-25.1-25.1-25.1
				l-7.6,0c-3.6,0-7.2,0.3-10.7,0.8l-10.5,1.5c-3.9,0.6-7.8,0.8-11.8,0.8L59.8,8c-2.6,0-5.1-0.4-7.6-1.2c-2.6-0.8-5.3-1.2-7.9-1.2
				l-19.4,0c-10.7,0-19.4,8.7-19.4,19.4l0,16.4l0,16.4c0,10.7,8.7,19.4,19.4,19.4l19.4,0c2.7,0,5.4-0.4,7.9-1.2
				c2.4-0.8,5-1.2,7.6-1.2l43.6-0.7c3.9-0.1,7.9,0.2,11.8,0.8L125.6,76.3z"/>
			<path class="st0" d="M158.8,8.7c3.2-2.2,9.3,7.2,7.2,9.9C163.9,21.4,156.2,10.5,158.8,8.7z"/>
			<path d="M122.4,5.4c0,0-3-4.3-4.4-5.1s-2.8,0-2.6,0.5s2.5,6.1,2.5,6.1L122.4,5.4z"/>
			<path class="st1" d="M79.3,12.2c7.7,0,14.3-0.1,19.1-0.3c15.2-0.7,27.3-3.4,27.3-3.4c-18.1-1-32.8-1.4-44.6-1.5
				C80.3,8.7,79.9,10.5,79.3,12.2z"/>
			<path class="st1" d="M79.7,7C43.1,6.7,34,9.3,34,9.3c7.3,1.9,27.1,2.7,43.9,2.8C78.5,10.5,79.3,8.8,79.7,7z"/>
			<path class="st1" d="M79.2,70.4c7.7,0,14.3,0.1,19.1,0.3c15.2,0.7,27.3,3.5,27.3,3.5c-18,0.9-32.7,1.3-44.6,1.4
				C80.2,73.9,79.8,72.1,79.2,70.4z"/>
			<path class="st1" d="M79.6,75.6c-36.6,0.3-45.7-2.5-45.7-2.5c7.3-1.9,27.1-2.7,43.9-2.8C78.4,72.1,79.2,73.8,79.6,75.6z"/>
			<path class="st1" d="M5.5,18.5c-1-0.5-0.9-2.9,0.3-5.4s3-4.1,4-3.6s0.9,2.9-0.3,5.4S6.5,19,5.5,18.5z"/>
			<path class="st0" d="M158.7,74.1c3.2,2.2,9.3-7.2,7.2-9.9C163.8,61.4,156.1,72.3,158.7,74.1z"/>
			<path d="M122.3,77.2c0,0-3,4.3-4.4,5.1s-2.8,0-2.6-0.5s2.5-6.1,2.5-6.1L122.3,77.2z"/>
			<path class="st1" d="M5.4,63.9c-1,0.5-0.9,2.9,0.3,5.4s3,4.1,4,3.6s0.9-2.9-0.3-5.4C8.2,65.1,6.4,63.4,5.4,63.9z"/>
			<path class="st1" d="M41.8,41.3c0,17.6,3.5,25.5,3.5,25.5l-26.5,0c0,0-7.3-6.5-7.3-25.5l0,0l0,0l0,0l0,0c0-19,7.3-25.5,7.3-25.5
				l26.5,0C45.3,15.8,41.8,23.7,41.8,41.3z M145.1,41.4L145.1,41.4L145.1,41.4L145.1,41.4L145.1,41.4c0-24.5-13.4-30.7-13.4-30.7
				l-26.3,3.3c0,0,3,14,3,27.4s-3,27.4-3,27.4l26.3,3.3C131.5,72.1,145,65.9,145.1,41.4z"/>
		</g>
	</g>
</g>
<g id="DESIGNED_BY_FREEPIK">
</g>
</svg>
