<?xml version="1.0" encoding="utf-8"?>
<!-- Generator: Adobe Illustrator 24.3.0, SVG Export Plug-In . SVG Version: 6.00 Build 0)  -->
<svg version="1.1" id="Layer_1" xmlns="http://www.w3.org/2000/svg" xmlns:xlink="http://www.w3.org/1999/xlink" x="0px" y="0px"
	 viewBox="0 0 84 175" style="enable-background:new 0 0 84 175;" xml:space="preserve">
<style type="text/css">
	.st0{fill:#E9E8D8;}
	.st1{fill:#FFFFFF;}
</style>
<g id="OBJECTS">
	<g>
		<g>
			<path d="M5.1,46.7c-0.5-3.8-0.8-7.6-0.8-11.3v-8.1c0-14.7,11.9-26.6,26.6-26.6h11.3h11.3c14.7,0,26.6,11.9,26.6,26.6v8.1
				c0,3.8-0.3,7.6-0.8,11.3l-1.6,11.2c-0.6,4.1-0.9,8.3-0.8,12.5l0.6,46.3c0,2.7,0.5,5.4,1.3,8c0.8,2.7,1.3,5.6,1.3,8.4v20.5
				c0,11.4-9.2,20.6-20.5,20.6H42.2H24.8c-11.4,0-20.5-9.2-20.5-20.6V133c0-2.9,0.4-5.7,1.3-8.4c0.8-2.6,1.2-5.3,1.3-8l0.6-46.3
				c0.1-4.2-0.2-8.3-0.8-12.5L5.1,46.7z"/>
			<path d="M77.2,49c0.5-3.5,0.8-7.1,0.8-10.7v-7.6C78,16.8,66.8,5.5,52.9,5.5H42.2H31.5C17.6,5.5,6.4,16.8,6.4,30.6v7.6
				c0,3.6,0.3,7.2,0.8,10.7l1.5,10.5c0.6,3.9,0.8,7.8,0.8,11.8l-0.6,43.7c0,2.6-0.4,5.1-1.2,7.6c-0.8,2.6-1.2,5.3-1.2,7.9v19.4
				c0,10.7,8.7,19.4,19.4,19.4h16.4h16.4c10.7,0,19.4-8.7,19.4-19.4v-19.4c0-2.7-0.4-5.4-1.2-7.9c-0.8-2.4-1.2-5-1.2-7.6L75,71.3
				c-0.1-3.9,0.2-7.9,0.8-11.8L77.2,49z"/>
			<path class="st0" d="M9.5,15.9c-2.2-3.2,7.2-9.3,9.9-7.2C22.2,10.8,11.3,18.5,9.5,15.9z"/>
			<path d="M6.3,52.3c0,0-4.3,3-5.1,4.4s0,2.8,0.5,2.6s6.1-2.5,6.1-2.5L6.3,52.3z"/>
			<path class="st1" d="M13.1,95.4c0-7.7-0.1-14.3-0.3-19.1C12.1,61.1,9.4,49,9.4,49C8.4,67.1,8,81.8,7.9,93.6
				C9.6,94.4,11.4,94.8,13.1,95.4z"/>
			<path class="st1" d="M7.9,95c-0.3,36.6,2.4,45.7,2.4,45.7c1.9-7.3,2.7-27.1,2.8-43.9C11.4,96.2,9.7,95.4,7.9,95z"/>
			<path class="st1" d="M71.3,95.4c0-7.7,0.1-14.3,0.3-19.1C72.3,61.1,75.1,49,75.1,49c0.9,18,1.3,32.7,1.4,44.6
				C74.8,94.4,73,94.8,71.3,95.4z"/>
			<path class="st1" d="M76.5,95c0.3,36.6-2.4,45.7-2.4,45.7c-1.9-7.3-2.7-27.1-2.8-43.9C73,96.2,74.7,95.4,76.5,95z"/>
			<path class="st1" d="M19.5,169.2c-0.5,1-2.9,0.9-5.4-0.3c-2.5-1.2-4.1-3-3.6-4c0.5-1,2.9-0.9,5.4,0.3
				C18.4,166.4,20,168.2,19.5,169.2z"/>
			<path class="st0" d="M74.9,15.9c2.2-3.2-7.2-9.3-9.9-7.2C62.2,10.8,73.1,18.5,74.9,15.9z"/>
			<path d="M78.1,52.3c0,0,4.3,3,5.1,4.4s0,2.8-0.5,2.6s-6.1-2.5-6.1-2.5L78.1,52.3z"/>
			<path class="st1" d="M64.9,169.2c0.5,1,2.9,0.9,5.4-0.3c2.5-1.2,4.1-3,3.6-4c-0.5-1-2.9-0.9-5.4,0.3
				C66.1,166.4,64.4,168.2,64.9,169.2z"/>
			<path class="st1" d="M42.2,132.9c17.6,0,25.5-3.5,25.5-3.5v26.5c0,0-6.5,7.3-25.5,7.3l0,0l0,0l0,0l0,0c-19,0-25.5-7.3-25.5-7.3
				v-26.5C16.7,129.4,24.6,132.9,42.2,132.9z M42.2,29.6L42.2,29.6L42.2,29.6L42.2,29.6L42.2,29.6c-24.5,0-30.7,13.4-30.7,13.4
				l3.3,26.3c0,0,14-3,27.4-3s27.4,3,27.4,3l3.3-26.3C72.9,43.1,66.7,29.6,42.2,29.6z"/>
		</g>
	</g>
</g>
<g id="DESIGNED_BY_FREEPIK">
</g>
</svg>
